<svg width="140" height="31" viewBox="0 0 140 31" fill="none" xmlns="http://www.w3.org/2000/svg">
<path d="M50.54 16.472L51.475 23H53.94L51.985 10.165L47.123 18.121L42.125 10.165L40.34 23H42.805L43.621 16.455L47.14 21.895L50.54 16.472ZM56.6743 20.552C56.6743 19.889 57.4393 19.634 58.3573 19.634C58.9013 19.634 59.4453 19.719 59.8873 19.889V19.94C59.8873 21.062 59.0033 21.453 57.9833 21.453C57.2183 21.453 56.6743 21.13 56.6743 20.552ZM55.7393 17.424C56.1133 17.152 57.2013 16.659 58.3233 16.659C59.1733 16.659 59.8873 17.101 59.8873 17.866V18.648C59.3603 18.376 58.5783 18.155 57.4393 18.155C56.2323 18.155 54.3623 18.801 54.3623 20.79C54.3623 22.303 55.5183 23.34 57.4733 23.34C58.6123 23.34 59.4793 22.83 59.8873 21.997V23H62.1823V17.39C62.1823 15.707 60.6183 14.755 58.3233 14.755C56.9123 14.755 55.6543 15.367 55.0763 15.792L55.7393 17.424ZM66.35 18.24C66.35 17.118 67.149 16.608 68.084 16.608C68.934 16.608 69.325 17.033 69.325 18.24V23H71.62V17.73C71.62 15.877 70.549 14.823 68.934 14.823C67.71 14.823 66.843 15.418 66.35 16.336V15.18H64.055V23H66.35V18.24ZM75.0443 20.552C75.0443 19.889 75.8093 19.634 76.7273 19.634C77.2713 19.634 77.8153 19.719 78.2573 19.889V19.94C78.2573 21.062 77.3733 21.453 76.3533 21.453C75.5883 21.453 75.0443 21.13 75.0443 20.552ZM74.1093 17.424C74.4833 17.152 75.5713 16.659 76.6933 16.659C77.5433 16.659 78.2573 17.101 78.2573 17.866V18.648C77.7303 18.376 76.9483 18.155 75.8093 18.155C74.6023 18.155 72.7323 18.801 72.7323 20.79C72.7323 22.303 73.8883 23.34 75.8433 23.34C76.9823 23.34 77.8493 22.83 78.2573 21.997V23H80.5523V17.39C80.5523 15.707 78.9883 14.755 76.6933 14.755C75.2823 14.755 74.0243 15.367 73.4463 15.792L74.1093 17.424ZM81.83 23.595C82.136 25.703 83.649 27.165 86.454 27.165C88.919 27.165 91.095 26.043 91.095 22.83V15.18H88.8V16.489C88.188 15.401 87.151 14.755 85.961 14.755C83.836 14.755 82 16.132 82 19.005C82 21.878 83.836 23.255 85.961 23.255C87.151 23.255 88.188 22.609 88.8 21.521V22.83C88.8 24.462 87.814 25.125 86.624 25.125C85.094 25.125 84.295 24.462 84.159 23.595H81.83ZM84.312 19.005C84.312 17.628 85.281 16.795 86.556 16.795C87.746 16.795 88.8 17.373 88.8 19.005C88.8 20.637 87.746 21.215 86.556 21.215C85.281 21.215 84.312 20.552 84.312 19.005ZM94.563 19.685H100.751C100.785 19.362 100.785 19.073 100.785 18.937C100.785 16.472 99.136 14.755 96.586 14.755C93.951 14.755 92.2 16.727 92.2 19.09C92.2 21.453 93.781 23.34 96.586 23.34C98.949 23.34 100.071 22.116 100.683 20.841L98.507 20.348C98.167 21.028 97.555 21.555 96.586 21.555C95.583 21.555 94.767 20.926 94.563 19.685ZM98.337 18.002H94.614C94.869 17.05 95.736 16.455 96.586 16.455C97.555 16.455 98.15 16.999 98.337 18.002ZM107.057 17.526L108.23 15.69C107.822 15.197 107.244 14.925 106.343 14.925C105.612 14.925 104.864 15.401 104.354 16.166V15.18H101.974V23H104.354V18.58C104.354 17.458 104.813 17.135 105.748 17.135C106.19 17.135 106.683 17.254 107.057 17.526Z" fill="black"/>
<path d="M116.55 13.225H118.335C119.508 13.225 120.256 13.803 120.256 14.925C120.256 16.047 119.508 16.625 118.335 16.625H116.55V13.225ZM114.17 11.1V23H116.55V18.75H118.335C120.97 18.75 122.636 17.288 122.636 14.925C122.636 12.562 120.97 11.1 118.335 11.1H114.17ZM128.311 17.526L129.484 15.69C129.076 15.197 128.498 14.925 127.597 14.925C126.866 14.925 126.118 15.401 125.608 16.166V15.18H123.228V23H125.608V18.58C125.608 17.458 126.067 17.135 127.002 17.135C127.444 17.135 127.937 17.254 128.311 17.526ZM132.045 19.09C132.045 17.628 132.929 16.71 134.289 16.71C135.649 16.71 136.533 17.628 136.533 19.09C136.533 20.552 135.649 21.47 134.289 21.47C132.929 21.47 132.045 20.552 132.045 19.09ZM129.733 19.09C129.733 21.793 131.909 23.425 134.289 23.425C136.669 23.425 138.845 21.793 138.845 19.09C138.845 16.387 136.669 14.755 134.289 14.755C131.909 14.755 129.733 16.387 129.733 19.09Z" fill="#0561FC"/>
<path d="M15.5 2.58334L5.16669 7.75001L15.5 12.9167L25.8334 7.75001L15.5 2.58334Z" stroke="#0561FC" stroke-width="3" stroke-linecap="round" stroke-linejoin="round"/>
<path d="M5.16669 12.9167L15.5 18.0833L25.8334 12.9167" stroke="#758892" stroke-width="3" stroke-linecap="round" stroke-linejoin="round"/>
<path d="M5.16669 23.25L15.5 28.4167L25.8334 23.25" stroke="#758892" stroke-width="3" stroke-linecap="round" stroke-linejoin="round"/>
<path d="M5.16669 18.0833L15.5 23.25L25.8334 18.0833" stroke="#758892" stroke-width="3" stroke-linecap="round" stroke-linejoin="round"/>
</svg>
